# xmcd CD database file
#
# Track frame offsets:
#	150
#	14071
#	31617
#	48145
#	68480
#	85362
#	111808
#	126975
#	141300
#	163531
#	182464
#	202580
#	218339
#	232293
#	254636
#
# Disc length: 3728 seconds
#
# Revision: 0
# Processed by: cddbd v1.5.2PL0 Copyright (c) Steve Scherf et al.
# Submitted via: CDex 1.51
#
DISCID=c80e8e0f
DTITLE=Ella Fitzgerald and Luis Armstrong - What a Wonderful Duet - 1
DYEAR=1900
DGENRE=Jazz
TTITLE0=Dream a little dream of me
TTITLE1=Love is here to stay
TTITLE2=Moonlight in Vermont
TTITLE3=They can't take away from me
TTITLE4=Cant We be friends
TTITLE5=Cheek to cheek
TTITLE6=I'm Puttin' all my eggs in one basket
TTITLE7=Stars Fell on Alabama
TTITLE8=Tenderly
TTITLE9=Let's call the whole thing off
TTITLE10=A foggy day
TTITLE11=A fine romance
TTITLE12=I've got my love to keep me warm
TTITLE13=Don't be that way
TTITLE14=The nearness of you
EXTD=
EXTT0=
EXTT1=
EXTT2=
EXTT3=
EXTT4=
EXTT5=
EXTT6=
EXTT7=
EXTT8=
EXTT9=
EXTT10=
EXTT11=
EXTT12=
EXTT13=
EXTT14=
PLAYORDER=
